<svg xmlns="http://www.w3.org/2000/svg" width="580" height="230" viewBox="0 0 580 230">
<defs>
  <linearGradient id="g" x1="0" y1="0" x2="1" y2="1">
    <stop offset="0" stop-color="#f72585" stop-opacity="0.22"/>
    <stop offset="0.55" stop-color="#0e0c16" stop-opacity="0"/>
  </linearGradient>
  <linearGradient id="ln" x1="0" x2="1"><stop offset="0" stop-color="#f72585"/><stop offset="1" stop-color="#f72585"/></linearGradient>
  <filter id="gl" x="-10%" y="-10%" width="120%" height="120%"><feGaussianBlur stdDeviation="3"/></filter>
</defs>
<style>
  .h{font:800 28px 'Segoe UI', 'Helvetica Neue', Helvetica, Arial, sans-serif;fill:#ece9f5}
  .d{font:400 16.5px 'Segoe UI', 'Helvetica Neue', Helvetica, Arial, sans-serif;fill:#8b86a3}
  .t{font:600 12.5px 'SFMono-Regular', Consolas, 'Liberation Mono', Menlo, monospace;fill:#f72585}
  .s{font:700 12px 'SFMono-Regular', Consolas, 'Liberation Mono', Menlo, monospace;fill:#f59e0b;letter-spacing:1.5px}
  .run{stroke-dasharray:140 1464;animation:run 6s linear infinite}
  @keyframes run{to{stroke-dashoffset:-1604}}
  .dot{animation:ping 1.8s ease-out infinite;transform-box:fill-box;transform-origin:center}
  @keyframes ping{0%{transform:scale(1);opacity:.9}100%{transform:scale(3);opacity:0}}
  .ic{animation:float 4s ease-in-out infinite}
  @keyframes float{50%{transform:translateY(-4px)}}
  .all{animation:rise .9s cubic-bezier(.2,.8,.2,1) both}
  @keyframes rise{from{opacity:0;transform:translateY(12px)}to{opacity:1;transform:none}}
</style>
<g class="all">
<rect x="2" y="2" width="576" height="226" rx="20" fill="#0e0c16"/>
<rect x="2" y="2" width="576" height="226" rx="20" fill="url(#g)"/>
<rect x="2" y="2" width="576" height="226" rx="20" fill="none" stroke="#ffffff" stroke-opacity="0.07"/>
<rect class="run" x="2" y="2" width="576" height="226" rx="20" fill="none" stroke="url(#ln)" stroke-width="2.5" filter="url(#gl)"/>
<rect class="run" x="2" y="2" width="576" height="226" rx="20" fill="none" stroke="url(#ln)" stroke-width="1.5"/>
<g class="ic" transform="translate(34 30)"><g fill="none" stroke="#f72585" stroke-width="2.2" stroke-linejoin="round" stroke-linecap="round"><path d="M20 4v32 M10 36h20 M6 10h28 M10 10l-6 12h12z M30 10l-6 12h12z"/><circle cx="20" cy="6" r="2"/></g></g>
<text class="h" x="88" y="62">FairPoint</text>
<rect x="434" y="38" width="112" height="28" rx="14" fill="#f59e0b" fill-opacity="0.12" stroke="#f59e0b" stroke-opacity="0.4"/>
<circle class="dot" cx="449" cy="52" r="4" fill="#f59e0b"/>
<circle cx="449" cy="52" r="4" fill="#f59e0b"/>
<text class="s" x="460" y="56.5">BUILDING</text>
<text class="d" x="34" y="122">Drop the screenshots of an argument, get a</text><text class="d" x="34" y="146">fact-checked verdict on who's actually right.</text>
<rect x="34" y="182" width="32" height="26" rx="13" fill="#f72585" fill-opacity="0.1" stroke="#f72585" stroke-opacity="0.35"/><text class="t" x="50" y="199.5" text-anchor="middle">ai</text><rect x="74.4" y="182" width="98" height="26" rx="13" fill="#f72585" fill-opacity="0.1" stroke="#f72585" stroke-opacity="0.35"/><text class="t" x="123" y="199.5" text-anchor="middle">fact-check</text><rect x="180.4" y="182" width="73" height="26" rx="13" fill="#f72585" fill-opacity="0.1" stroke="#f72585" stroke-opacity="0.35"/><text class="t" x="217" y="199.5" text-anchor="middle">next.js</text>
</g>
</svg>